<?xml version="1.0" encoding="UTF-8"?><svg id="Layer_1" xmlns="http://www.w3.org/2000/svg" xmlns:xlink="http://www.w3.org/1999/xlink" viewBox="0 0 24 24"><defs><clipPath id="clippath"><rect width="24" height="23.74" style="fill:none;"/></clipPath></defs><g style="clip-path:url(#clippath);"><polyline points="10.16 18.8 10.57 22.18 6 20.72 4.32 17.12 10.16 18.8" style="fill:#adadad;"/><polyline points="10.16 18.8 10.57 22.18 6 20.72 4.32 17.12 10.16 18.8" style="fill:none; stroke:#adadad; stroke-miterlimit:10; stroke-width:.1px;"/><polyline points="10.57 22.18 10.16 18.8 16.81 18.24 15.71 21.69 10.57 22.18" style="fill:#aaa;"/><polyline points="10.57 22.18 10.16 18.8 16.81 18.24 15.71 21.69 10.57 22.18" style="fill:none; stroke:#aaa; stroke-miterlimit:10; stroke-width:.1px;"/><polyline points="10.16 18.8 4.32 17.12 4.96 11.11 10.32 12.34 10.16 18.8" style="fill:#e4e4e4;"/><polyline points="10.16 18.8 4.32 17.12 4.96 11.11 10.32 12.34 10.16 18.8" style="fill:none; stroke:#e4e4e4; stroke-miterlimit:10; stroke-width:.1px;"/><polyline points="4.32 17.12 6 20.72 3.66 18.08 1.56 14.16 4.32 17.12" style="fill:#b9b9b9;"/><polyline points="4.32 17.12 6 20.72 3.66 18.08 1.56 14.16 4.32 17.12" style="fill:none; stroke:#b9b9b9; stroke-miterlimit:10; stroke-width:.1px;"/><polyline points="15.71 21.69 16.81 18.24 21.32 15.77 19.33 19.53 15.71 21.69" style="fill:#aaa;"/><polyline points="15.71 21.69 16.81 18.24 21.32 15.77 19.33 19.53 15.71 21.69" style="fill:none; stroke:#aaa; stroke-miterlimit:10; stroke-width:.1px;"/><polyline points="16.81 18.24 10.16 18.8 10.32 12.34 12.85 12.17 14.64 12.04 16.38 11.93 16.81 18.24" style="fill:#d0d0d0;"/><polyline points="16.81 18.24 10.16 18.8 10.32 12.34 12.85 12.17 14.64 12.04 16.38 11.93 16.81 18.24" style="fill:none; stroke:#d0d0d0; stroke-miterlimit:10; stroke-width:.1px;"/><polyline points="16.81 18.24 16.38 11.93 20.56 10.12 21.32 15.77 16.81 18.24" style="fill:#bababa;"/><polyline points="16.81 18.24 16.38 11.93 20.56 10.12 21.32 15.77 16.81 18.24" style="fill:none; stroke:#bababa; stroke-miterlimit:10; stroke-width:.1px;"/><polyline points="20.16 5.79 21.68 7.81 17.81 3.63 17.09 2.62 20.16 5.79" style="fill:#d7d7d7;"/><polyline points="20.16 5.79 21.68 7.81 17.81 3.63 17.09 2.62 20.16 5.79" style="fill:none; stroke:#d7d7d7; stroke-miterlimit:10; stroke-width:.1px;"/><polyline points="21.68 7.81 22.44 12.68 21.32 15.77 20.56 10.12 21.68 7.81" style="fill:#aaa;"/><polyline points="21.68 7.81 22.44 12.68 21.32 15.77 20.56 10.12 21.68 7.81" style="fill:none; stroke:#aaa; stroke-miterlimit:10; stroke-width:.1px;"/><polyline points="4.32 17.12 1.56 14.16 2.35 8.92 4.96 11.11 4.32 17.12" style="fill:#efefef;"/><polyline points="4.32 17.12 1.56 14.16 2.35 8.92 4.96 11.11 4.32 17.12" style="fill:none; stroke:#efefef; stroke-miterlimit:10; stroke-width:.1px;"/><polyline points="17.81 3.63 21.68 7.81 20.56 10.12 16.92 4.7 17.81 3.63" style="fill:#dfdfdf;"/><polyline points="17.81 3.63 21.68 7.81 20.56 10.12 16.92 4.7 17.81 3.63" style="fill:none; stroke:#dfdfdf; stroke-miterlimit:10; stroke-width:.1px;"/><polyline points="17.81 3.63 16.92 4.7 11.94 1.82 17.81 3.63" style="fill:#fff;"/><polyline points="17.81 3.63 16.92 4.7 11.94 1.82 17.81 3.63" style="fill:none; stroke:#fff; stroke-miterlimit:10; stroke-width:.1px;"/><polyline points="16.92 4.7 20.56 10.12 16.38 11.93 15.15 7.85 14.43 5.48 16.92 4.7" style="fill:#ededed;"/><polyline points="16.92 4.7 20.56 10.12 16.38 11.93 15.15 7.85 14.43 5.48 16.92 4.7" style="fill:none; stroke:#ededed; stroke-miterlimit:10; stroke-width:.1px;"/><polyline points="17.09 2.62 17.81 3.63 11.94 1.82 17.09 2.62" style="fill:#fff;"/><polyline points="17.09 2.62 17.81 3.63 11.94 1.82 17.09 2.62" style="fill:none; stroke:#fff; stroke-miterlimit:10; stroke-width:.1px;"/><polyline points="11.94 1.82 16.92 4.7 14.43 5.48 11.94 1.82" style="fill:#fff;"/><polyline points="11.94 1.82 16.92 4.7 14.43 5.48 11.94 1.82" style="fill:none; stroke:#fff; stroke-miterlimit:10; stroke-width:.1px;"/><polyline points="11.94 1.82 14.43 5.48 13.05 5.54 11.04 5.65 11.94 1.82" style="fill:#fff;"/><polyline points="11.94 1.82 14.43 5.48 13.05 5.54 11.04 5.65 11.94 1.82" style="fill:none; stroke:#fff; stroke-miterlimit:10; stroke-width:.1px;"/><polyline points="15.19 1.89 17.09 2.62 11.94 1.82 15.19 1.89" style="fill:#fff;"/><polyline points="15.19 1.89 17.09 2.62 11.94 1.82 15.19 1.89" style="fill:none; stroke:#fff; stroke-miterlimit:10; stroke-width:.1px;"/><polyline points="15.19 1.89 11.94 1.82 12.64 1.56 15.19 1.89" style="fill:#fff;"/><polyline points="15.19 1.89 11.94 1.82 12.64 1.56 15.19 1.89" style="fill:none; stroke:#fff; stroke-miterlimit:10; stroke-width:.1px;"/><polyline points="10.32 12.34 4.96 11.11 7.98 5.13 11.04 5.65 10.83 7.6 10.37 11.83 10.32 12.34" style="fill:#fff;"/><polyline points="10.32 12.34 4.96 11.11 7.98 5.13 11.04 5.65 10.83 7.6 10.37 11.83 10.32 12.34" style="fill:none; stroke:#fff; stroke-miterlimit:10; stroke-width:.1px;"/><polyline points="11.04 5.65 7.98 5.13 11.94 1.82 11.04 5.65" style="fill:#fff;"/><polyline points="11.04 5.65 7.98 5.13 11.94 1.82 11.04 5.65" style="fill:none; stroke:#fff; stroke-miterlimit:10; stroke-width:.1px;"/><polyline points="7.98 5.13 4.96 11.11 2.35 8.92 6.28 4.16 7.98 5.13" style="fill:#fff;"/><polyline points="7.98 5.13 4.96 11.11 2.35 8.92 6.28 4.16 7.98 5.13" style="fill:none; stroke:#fff; stroke-miterlimit:10; stroke-width:.1px;"/><polyline points="11.94 1.82 7.98 5.13 6.28 4.16 11.94 1.82" style="fill:#fff;"/><polyline points="11.94 1.82 7.98 5.13 6.28 4.16 11.94 1.82" style="fill:none; stroke:#fff; stroke-miterlimit:10; stroke-width:.1px;"/><polyline points="6.28 4.16 2.35 8.92 2.72 6.69 6.26 3.08 6.28 4.16" style="fill:#fff;"/><polyline points="6.28 4.16 2.35 8.92 2.72 6.69 6.26 3.08 6.28 4.16" style="fill:none; stroke:#fff; stroke-miterlimit:10; stroke-width:.1px;"/><polyline points="6.28 4.16 6.26 3.08 11.94 1.82 6.28 4.16" style="fill:#fff;"/><polyline points="6.28 4.16 6.26 3.08 11.94 1.82 6.28 4.16" style="fill:none; stroke:#fff; stroke-miterlimit:10; stroke-width:.1px;"/><polyline points="11.94 1.82 6.26 3.08 7.66 2.19 11.94 1.82" style="fill:#fff;"/><polyline points="11.94 1.82 6.26 3.08 7.66 2.19 11.94 1.82" style="fill:none; stroke:#fff; stroke-miterlimit:10; stroke-width:.1px;"/><polyline points="7.66 2.19 9.96 1.66 11.94 1.82 7.66 2.19" style="fill:#fff;"/><polyline points="7.66 2.19 9.96 1.66 11.94 1.82 7.66 2.19" style="fill:none; stroke:#fff; stroke-miterlimit:10; stroke-width:.1px;"/><polyline points="9.96 1.66 12.64 1.56 11.94 1.82 9.96 1.66" style="fill:#fff;"/><polyline points="9.96 1.66 12.64 1.56 11.94 1.82 9.96 1.66" style="fill:none; stroke:#fff; stroke-miterlimit:10; stroke-width:.1px;"/><polyline points="12.85 12.17 10.32 12.34 10.37 11.83 12.9 11.66 12.85 12.17" style="fill:#6d7276;"/><polyline points="12.85 12.17 10.32 12.34 10.37 11.83 12.9 11.66 12.85 12.17" style="fill:none; stroke:#6d7276; stroke-miterlimit:10; stroke-width:.1px;"/><polyline points="12.9 11.66 10.37 11.83 10.83 7.6 13.09 7.47 12.9 11.66" style="fill:#5a5e61;"/><polyline points="12.9 11.66 10.37 11.83 10.83 7.6 13.09 7.47 12.9 11.66" style="fill:none; stroke:#5a5e61; stroke-miterlimit:10; stroke-width:.1px;"/><polyline points="13.09 7.47 10.83 7.6 11.04 5.65 13.05 5.54 13.09 7.47" style="fill:#494d4f;"/><polyline points="13.09 7.47 10.83 7.6 11.04 5.65 13.05 5.54 13.09 7.47" style="fill:none; stroke:#494d4f; stroke-miterlimit:10; stroke-width:.1px;"/><polyline points="12.9 11.66 13.09 7.47 15.15 7.85 16.38 11.93 14.64 12.04 12.9 11.66" style="fill:#62666a;"/><polyline points="12.9 11.66 13.09 7.47 15.15 7.85 16.38 11.93 14.64 12.04 12.9 11.66" style="fill:none; stroke:#62666a; stroke-miterlimit:10; stroke-width:.1px;"/><polyline points="13.09 7.47 13.05 5.54 14.43 5.48 15.15 7.85 13.09 7.47" style="fill:#4b4e51;"/><polyline points="13.09 7.47 13.05 5.54 14.43 5.48 15.15 7.85 13.09 7.47" style="fill:none; stroke:#4b4e51; stroke-miterlimit:10; stroke-width:.1px;"/><polyline points="12.85 12.17 12.9 11.66 14.64 12.04 12.85 12.17" style="fill:#73797d;"/><polyline points="12.85 12.17 12.9 11.66 14.64 12.04 12.85 12.17" style="fill:none; stroke:#73797d; stroke-miterlimit:10; stroke-width:.1px;"/><line x1="10.16" y1="18.8" x2="10.57" y2="22.18" style="fill:none; stroke:#000; stroke-linecap:round; stroke-linejoin:round; stroke-width:.5px;"/><polyline points="10.16 18.8 4.32 17.12 6 20.72" style="fill:none; stroke:#000; stroke-linecap:round; stroke-linejoin:round; stroke-width:.5px;"/><line x1="16.81" y1="18.24" x2="15.71" y2="21.69" style="fill:none; stroke:#000; stroke-linecap:round; stroke-linejoin:round; stroke-width:.5px;"/><line x1="16.81" y1="18.24" x2="10.16" y2="18.8" style="fill:none; stroke:#000; stroke-linecap:round; stroke-linejoin:round; stroke-width:.5px;"/><line x1="16.38" y1="11.93" x2="16.81" y2="18.24" style="fill:none; stroke:#000; stroke-linecap:round; stroke-linejoin:round; stroke-width:.5px;"/><line x1="10.32" y1="12.34" x2="10.16" y2="18.8" style="fill:none; stroke:#000; stroke-linecap:round; stroke-linejoin:round; stroke-width:.5px;"/><line x1="4.32" y1="17.12" x2="1.56" y2="14.16" style="fill:none; stroke:#000; stroke-linecap:round; stroke-linejoin:round; stroke-width:.5px;"/><line x1="17.81" y1="3.63" x2="21.68" y2="7.81" style="fill:none; stroke:#000; stroke-linecap:round; stroke-linejoin:round; stroke-width:.5px;"/><polyline points="17.81 3.63 16.92 4.7 20.56 10.12" style="fill:none; stroke:#000; stroke-linecap:round; stroke-linejoin:round; stroke-width:.5px;"/><line x1="21.68" y1="7.81" x2="20.56" y2="10.12" style="fill:none; stroke:#000; stroke-linecap:round; stroke-linejoin:round; stroke-width:.5px;"/><line x1="17.09" y1="2.62" x2="17.81" y2="3.63" style="fill:none; stroke:#000; stroke-linecap:round; stroke-linejoin:round; stroke-width:.5px;"/><line x1="21.32" y1="15.77" x2="16.81" y2="18.24" style="fill:none; stroke:#000; stroke-linecap:round; stroke-linejoin:round; stroke-width:.5px;"/><line x1="11.94" y1="1.82" x2="16.92" y2="4.7" style="fill:none; stroke:#000; stroke-linecap:round; stroke-linejoin:round; stroke-width:.5px;"/><line x1="11.94" y1="1.82" x2="14.43" y2="5.48" style="fill:none; stroke:#000; stroke-linecap:round; stroke-linejoin:round; stroke-width:.5px;"/><line x1="16.92" y1="4.7" x2="14.43" y2="5.48" style="fill:none; stroke:#000; stroke-linecap:round; stroke-linejoin:round; stroke-width:.5px;"/><polyline points="15.19 1.89 11.94 1.82 17.09 2.62" style="fill:none; stroke:#000; stroke-linecap:round; stroke-linejoin:round; stroke-width:.5px;"/><polyline points="11.04 5.65 7.98 5.13 4.96 11.11" style="fill:none; stroke:#000; stroke-linecap:round; stroke-linejoin:round; stroke-width:.5px;"/><line x1="10.32" y1="12.34" x2="4.96" y2="11.11" style="fill:none; stroke:#000; stroke-linecap:round; stroke-linejoin:round; stroke-width:.5px;"/><line x1="11.94" y1="1.82" x2="11.04" y2="5.65" style="fill:none; stroke:#000; stroke-linecap:round; stroke-linejoin:round; stroke-width:.5px;"/><polyline points="11.94 1.82 7.98 5.13 6.28 4.16 2.35 8.92" style="fill:none; stroke:#000; stroke-linecap:round; stroke-linejoin:round; stroke-width:.5px;"/><line x1="4.96" y1="11.11" x2="2.35" y2="8.92" style="fill:none; stroke:#000; stroke-linecap:round; stroke-linejoin:round; stroke-width:.5px;"/><line x1="4.96" y1="11.11" x2="4.32" y2="17.12" style="fill:none; stroke:#000; stroke-linecap:round; stroke-linejoin:round; stroke-width:.5px;"/><line x1="11.94" y1="1.82" x2="17.81" y2="3.63" style="fill:none; stroke:#000; stroke-linecap:round; stroke-linejoin:round; stroke-width:.5px;"/><line x1="6.28" y1="4.16" x2="6.26" y2="3.08" style="fill:none; stroke:#000; stroke-linecap:round; stroke-linejoin:round; stroke-width:.5px;"/><line x1="20.56" y1="10.12" x2="16.38" y2="11.93" style="fill:none; stroke:#000; stroke-linecap:round; stroke-linejoin:round; stroke-width:.5px;"/><line x1="20.56" y1="10.12" x2="21.32" y2="15.77" style="fill:none; stroke:#000; stroke-linecap:round; stroke-linejoin:round; stroke-width:.5px;"/><line x1="11.94" y1="1.82" x2="6.28" y2="4.16" style="fill:none; stroke:#000; stroke-linecap:round; stroke-linejoin:round; stroke-width:.5px;"/><line x1="11.94" y1="1.82" x2="6.26" y2="3.08" style="fill:none; stroke:#000; stroke-linecap:round; stroke-linejoin:round; stroke-width:.5px;"/><line x1="11.94" y1="1.82" x2="7.66" y2="2.19" style="fill:none; stroke:#000; stroke-linecap:round; stroke-linejoin:round; stroke-width:.5px;"/><line x1="11.94" y1="1.82" x2="9.96" y2="1.66" style="fill:none; stroke:#000; stroke-linecap:round; stroke-linejoin:round; stroke-width:.5px;"/><line x1="11.94" y1="1.82" x2="12.64" y2="1.56" style="fill:none; stroke:#000; stroke-linecap:round; stroke-linejoin:round; stroke-width:.5px;"/><line x1="10.57" y1="22.18" x2="6" y2="20.72" style="fill:none; stroke:#000; stroke-linecap:round; stroke-linejoin:round; stroke-width:1.5px;"/><line x1="15.71" y1="21.69" x2="10.57" y2="22.18" style="fill:none; stroke:#000; stroke-linecap:round; stroke-linejoin:round; stroke-width:1.5px;"/><polyline points="20.16 5.79 21.68 7.81 22.44 12.68" style="fill:none; stroke:#000; stroke-linecap:round; stroke-linejoin:round; stroke-width:1.5px;"/><line x1="1.56" y1="14.16" x2="3.66" y2="18.08" style="fill:none; stroke:#000; stroke-linecap:round; stroke-linejoin:round; stroke-width:1.5px;"/><line x1="6" y1="20.72" x2="3.66" y2="18.08" style="fill:none; stroke:#000; stroke-linecap:round; stroke-linejoin:round; stroke-width:1.5px;"/><polyline points="22.44 12.68 21.32 15.77 19.33 19.53" style="fill:none; stroke:#000; stroke-linecap:round; stroke-linejoin:round; stroke-width:1.5px;"/><line x1="17.09" y1="2.62" x2="20.16" y2="5.79" style="fill:none; stroke:#000; stroke-linecap:round; stroke-linejoin:round; stroke-width:1.5px;"/><line x1="19.33" y1="19.53" x2="15.71" y2="21.69" style="fill:none; stroke:#000; stroke-linecap:round; stroke-linejoin:round; stroke-width:1.5px;"/><line x1="15.19" y1="1.89" x2="17.09" y2="2.62" style="fill:none; stroke:#000; stroke-linecap:round; stroke-linejoin:round; stroke-width:1.5px;"/><line x1="2.35" y1="8.92" x2="1.56" y2="14.16" style="fill:none; stroke:#000; stroke-linecap:round; stroke-linejoin:round; stroke-width:1.5px;"/><line x1="2.35" y1="8.92" x2="2.72" y2="6.69" style="fill:none; stroke:#000; stroke-linecap:round; stroke-linejoin:round; stroke-width:1.5px;"/><line x1="6.26" y1="3.08" x2="2.72" y2="6.69" style="fill:none; stroke:#000; stroke-linecap:round; stroke-linejoin:round; stroke-width:1.5px;"/><polyline points="6.26 3.08 7.66 2.19 9.96 1.66" style="fill:none; stroke:#000; stroke-linecap:round; stroke-linejoin:round; stroke-width:1.5px;"/><polyline points="9.96 1.66 12.64 1.56 15.19 1.89" style="fill:none; stroke:#000; stroke-linecap:round; stroke-linejoin:round; stroke-width:1.5px;"/><line x1="12.85" y1="12.17" x2="10.32" y2="12.34" style="fill:none; stroke:#c00; stroke-linecap:round; stroke-linejoin:round; stroke-width:1.5px;"/><polyline points="14.43 5.48 15.15 7.85 16.38 11.93" style="fill:none; stroke:#c00; stroke-linecap:round; stroke-linejoin:round; stroke-width:1.5px;"/><polyline points="14.43 5.48 13.05 5.54 11.04 5.65 10.83 7.6" style="fill:none; stroke:#c00; stroke-linecap:round; stroke-linejoin:round; stroke-width:1.5px;"/><polyline points="16.38 11.93 14.64 12.04 12.85 12.17" style="fill:none; stroke:#c00; stroke-linecap:round; stroke-linejoin:round; stroke-width:1.5px;"/><polyline points="10.83 7.6 10.37 11.83 10.32 12.34" style="fill:none; stroke:#c00; stroke-linecap:round; stroke-linejoin:round; stroke-width:1.5px;"/></g></svg>